<svg version="1.1" id="Layer_1" xmlns="http://www.w3.org/2000/svg" xmlns:xlink="http://www.w3.org/1999/xlink" x="0px" y="0px"
	 width="100%" viewBox="0 0 1850 1881" enable-background="new 0 0 1850 1881" xml:space="preserve">
<path fill="#000202" opacity="1.000000" stroke="none" 
	d="
M1.000000,678.000000 
	C1.000000,452.000000 1.000000,226.500000 1.000000,1.000000 
	C617.666687,1.000000 1234.333374,1.000000 1851.000000,1.000000 
	C1851.000000,628.000000 1851.000000,1255.000000 1851.000000,1882.000000 
	C1234.333374,1882.000000 617.666687,1882.000000 1.000000,1882.000000 
	C1.000000,1480.833374 1.000000,1079.666626 1.000000,678.000000 
M869.078613,1639.279419 
	C872.820801,1644.102539 875.872620,1649.747681 880.442688,1653.584717 
	C891.379211,1662.767334 895.387207,1675.488281 899.940186,1688.052979 
	C901.623047,1692.697144 902.293152,1697.899536 904.804199,1702.003540 
	C907.839600,1706.964478 911.641113,1711.310791 912.410034,1717.429199 
	C912.665894,1719.464600 913.828247,1721.585938 915.112488,1723.255615 
	C919.351562,1728.767090 921.064575,1735.106689 921.537231,1741.831787 
	C921.665771,1743.661743 921.434387,1746.201050 920.294067,1747.319092 
	C915.066467,1752.444702 917.243469,1757.406006 919.608093,1762.809937 
	C920.872437,1765.699341 921.080017,1769.055298 921.732422,1772.207397 
	C923.085632,1778.744751 925.109070,1785.047607 930.637207,1789.266602 
	C935.213745,1792.759399 940.466553,1795.383667 944.946777,1798.981689 
	C955.419312,1807.392334 964.215088,1808.584106 975.701599,1801.837402 
	C980.962097,1798.747559 986.294556,1797.565430 992.315125,1797.664551 
	C996.535950,1797.734253 1001.259094,1797.629883 1004.923767,1795.868164 
	C1020.374573,1788.440552 1036.560181,1787.858398 1053.184448,1788.837280 
	C1057.779541,1789.108032 1062.485840,1787.489746 1067.141357,1786.740601 
	C1068.578125,1786.509399 1070.078857,1785.897705 1071.443481,1786.119141 
	C1084.266235,1788.200073 1096.350464,1784.842651 1107.492798,1779.468140 
	C1116.499023,1775.124023 1124.519409,1768.629395 1132.704712,1762.711914 
	C1148.874512,1751.022095 1162.315430,1736.379517 1175.672119,1721.734619 
	C1185.063110,1711.437866 1195.347412,1701.812500 1201.815308,1689.088379 
	C1202.803955,1687.143677 1205.625366,1686.168579 1207.503540,1684.628662 
	C1209.977173,1682.600586 1212.671753,1680.719482 1214.690674,1678.292236 
	C1216.896362,1675.640747 1217.753784,1671.308716 1220.406372,1669.698730 
	C1226.949341,1665.727539 1229.537720,1659.491333 1232.358398,1653.127319 
	C1233.228394,1651.164307 1234.354126,1649.260498 1235.655762,1647.553101 
	C1239.438721,1642.590576 1241.363281,1637.152466 1240.984375,1630.836670 
	C1240.880981,1629.116211 1241.231567,1626.879639 1242.281982,1625.665649 
	C1246.197510,1621.140625 1245.189209,1616.022095 1244.623291,1610.941772 
	C1244.255615,1607.640991 1243.810791,1604.310669 1242.963013,1601.109497 
	C1241.221802,1594.533691 1242.005493,1589.475342 1249.406494,1586.983643 
	C1251.492188,1586.281494 1253.003906,1584.031128 1255.000732,1582.873657 
	C1258.396606,1580.905273 1261.863770,1578.983276 1265.489868,1577.505493 
	C1271.592285,1575.018311 1278.089111,1573.389893 1283.957642,1570.470825 
	C1289.260864,1567.833130 1293.820068,1563.742310 1298.940063,1560.681519 
	C1303.612305,1557.888428 1306.377441,1553.930786 1306.999634,1548.728027 
	C1308.177979,1538.876587 1309.000977,1528.982544 1309.933105,1519.102417 
	C1310.009766,1518.289185 1309.788208,1517.448486 1309.712280,1516.619995 
	C1309.076782,1509.698608 1308.589355,1502.759399 1307.754883,1495.862183 
	C1307.241455,1491.619873 1306.767578,1487.225586 1305.269897,1483.281616 
	C1302.524048,1476.051880 1298.906738,1469.158691 1295.892090,1462.024048 
	C1293.232910,1455.730957 1295.875610,1450.333374 1301.981567,1447.329224 
	C1305.315430,1445.689087 1308.188965,1443.063232 1311.151978,1440.731812 
	C1315.172852,1437.567871 1319.182373,1434.374878 1323.013794,1430.987427 
	C1328.850708,1425.826660 1335.472778,1421.182617 1340.007935,1415.027100 
	C1344.385742,1409.085327 1348.940308,1403.861572 1355.390381,1400.512207 
	C1364.967896,1395.538818 1374.742065,1390.945557 1384.377075,1386.080566 
	C1388.958374,1383.767334 1393.797729,1381.712891 1397.852905,1378.656006 
	C1411.885376,1368.078125 1421.573364,1354.208862 1427.899902,1337.816406 
	C1430.774658,1330.367432 1433.582153,1323.196533 1429.394409,1315.338013 
	C1428.822021,1314.263794 1429.056641,1312.721313 1429.041382,1311.394165 
	C1428.785522,1289.065918 1428.276978,1266.735474 1428.459351,1244.410522 
	C1428.521362,1236.815674 1426.388550,1231.132080 1420.860718,1225.883301 
	C1414.569580,1219.909912 1409.599365,1212.815186 1408.056885,1203.830200 
	C1406.376099,1194.038086 1404.735107,1184.324341 1405.271362,1174.263062 
	C1405.618042,1167.759644 1404.503784,1161.174683 1409.070068,1156.675903 
	C1406.886475,1151.473511 1405.008789,1146.926758 1403.061646,1142.409912 
	C1402.543213,1141.207520 1402.052246,1139.837524 1401.136108,1138.990601 
	C1397.917725,1136.015625 1397.221191,1132.141602 1398.272827,1128.419189 
	C1402.116089,1114.814697 1404.768555,1100.628906 1415.040894,1089.782593 
	C1415.573364,1089.220581 1415.792725,1088.339844 1416.090454,1087.581055 
	C1419.062012,1080.009155 1422.142700,1072.476685 1424.933350,1064.838379 
	C1426.531006,1060.465332 1429.323120,1057.552490 1433.552490,1055.749756 
	C1438.716797,1053.548462 1443.007324,1050.318481 1445.777100,1045.217896 
	C1446.500366,1043.885864 1448.004761,1042.200195 1449.274658,1042.088501 
	C1453.116943,1041.750610 1454.413086,1039.015381 1456.212891,1036.373047 
	C1465.932739,1022.102844 1475.774414,1007.915649 1485.604614,993.720825 
	C1486.164185,992.912842 1486.895630,992.144592 1487.710693,991.604919 
	C1495.684082,986.326416 1500.934937,977.260681 1510.981079,974.849487 
	C1511.386353,974.752197 1511.813843,974.262024 1512.009766,973.849731 
	C1515.879028,965.709167 1523.632324,961.687744 1530.366699,956.636597 
	C1550.206787,941.755127 1571.589478,928.683350 1585.525757,907.140808 
	C1595.795166,891.266602 1606.556274,875.710449 1617.061523,859.988098 
	C1617.697266,859.036438 1617.932373,857.826538 1618.485107,856.808105 
	C1620.300903,853.462158 1622.225220,850.174622 1624.018677,846.817017 
	C1626.263672,842.613770 1628.512573,838.408142 1630.587769,834.120239 
	C1632.459961,830.251587 1633.978027,826.210754 1635.872437,822.353943 
	C1638.503784,816.997192 1642.368530,812.006409 1643.821411,806.373169 
	C1645.518311,799.792969 1648.183716,794.283264 1652.955566,789.619995 
	C1657.075073,785.594055 1659.040649,780.778137 1659.180176,774.896240 
	C1659.305176,769.622620 1659.447876,764.042664 1661.214966,759.192566 
	C1663.405518,753.180115 1664.088257,747.418213 1663.511963,741.156738 
	C1662.935181,734.892761 1659.813110,727.702271 1669.584473,723.692383 
	C1664.437012,720.727783 1660.640869,717.941101 1656.398071,716.333069 
	C1654.025879,715.433960 1650.474854,715.638794 1648.204590,716.805054 
	C1634.083740,724.058655 1619.864746,730.422363 1603.557251,731.194153 
	C1589.958374,731.837830 1576.265747,732.837158 1564.011475,740.040771 
	C1562.217041,741.095703 1559.909546,741.614441 1557.800537,741.743591 
	C1543.910522,742.594177 1530.557129,745.669983 1517.495972,750.441833 
	C1515.141846,751.301819 1511.344116,751.235535 1509.477173,749.869385 
	C1502.253296,744.582825 1495.439697,738.713318 1488.683228,732.820374 
	C1485.598755,730.130249 1484.993408,726.600220 1487.326050,722.942139 
	C1489.604004,719.369751 1489.688721,715.598572 1487.754395,712.016907 
	C1485.806152,708.409302 1483.810425,704.649841 1481.049561,701.690063 
	C1470.836548,690.741455 1460.320190,680.075134 1449.859619,669.359436 
	C1448.361450,667.824890 1446.605591,666.517090 1444.863647,665.249268 
	C1436.419189,659.102905 1427.939087,653.005432 1419.470459,646.892090 
	C1418.661499,646.308105 1417.800049,645.788147 1417.040039,645.146973 
	C1414.939453,643.374512 1412.879883,641.553589 1410.589111,639.565186 
	C1408.745117,641.317200 1407.293701,639.079895 1405.608398,637.187561 
	C1397.040283,627.566589 1392.810181,615.965271 1389.942017,603.663879 
	C1386.769165,590.055603 1379.241211,578.735718 1368.946167,569.834778 
	C1359.965332,562.070129 1353.507935,553.186401 1351.224487,541.763123 
	C1349.209595,531.682434 1348.607300,521.328247 1346.999146,511.155273 
	C1344.964111,498.281616 1340.817627,486.393677 1330.038330,477.863617 
	C1324.715088,473.651154 1319.682495,469.073456 1314.433838,464.764160 
	C1308.556763,459.939026 1307.478516,455.754852 1309.942505,448.933929 
	C1310.512939,447.354828 1310.268799,444.745056 1309.287964,443.453674 
	C1296.800415,427.011810 1293.104370,406.000244 1281.046265,389.353851 
	C1280.003174,387.913910 1279.752075,385.926239 1278.870361,384.339020 
	C1274.534302,376.533722 1270.057739,368.805939 1265.773560,360.972748 
	C1265.163574,359.857422 1265.334473,358.315033 1265.144043,356.970306 
	C1270.740723,356.939484 1267.877441,350.331116 1271.745728,348.982452 
	C1278.575928,355.058167 1282.545166,353.938171 1285.685425,344.679688 
	C1286.375366,342.645538 1286.748413,340.498840 1287.197998,338.389191 
	C1289.034058,329.771790 1291.264404,321.208923 1292.508789,312.505737 
	C1293.286499,307.066254 1293.742920,301.076508 1292.276367,295.921875 
	C1288.875732,283.969940 1284.356567,272.323456 1279.953125,260.680847 
	C1279.115479,258.466187 1276.722534,256.839752 1274.224487,254.009903 
	C1273.788818,260.184998 1270.491821,261.130951 1266.674805,260.809662 
	C1254.910034,259.819458 1243.121338,258.944244 1231.427368,257.384674 
	C1227.859131,256.908813 1223.687378,255.156586 1221.362183,252.574753 
	C1218.176636,249.037476 1214.732788,248.209335 1210.747437,248.855804 
	C1204.374634,249.889542 1198.143555,251.932343 1191.751221,252.669296 
	C1186.067017,253.324615 1181.091309,254.936279 1176.750610,258.625244 
	C1168.354614,265.760590 1158.494263,267.180756 1148.133301,265.158203 
	C1136.392944,262.866455 1124.821655,259.706543 1113.078979,257.428467 
	C1103.664795,255.602112 1094.135132,254.220123 1084.593994,253.270233 
	C1080.626343,252.875214 1077.496460,252.042160 1074.234741,249.532745 
	C1070.950439,247.006027 1066.767822,244.828308 1062.729980,244.257401 
	C1051.735718,242.702927 1042.274902,237.913361 1032.739380,232.692963 
	C1026.134766,229.077209 1019.073853,225.450760 1011.793701,224.085999 
	C995.879517,221.102631 983.084656,229.742706 971.242798,238.560654 
	C960.778870,246.352493 959.942566,252.903931 964.245239,265.377014 
	C965.069092,267.765198 965.526978,270.714050 964.918762,273.087860 
	C962.018005,284.409790 946.729492,290.159485 936.745422,284.263611 
	C928.186584,279.209412 919.684631,273.748932 910.497192,270.157288 
	C901.509644,266.643738 891.724792,265.094269 882.218689,263.007355 
	C875.295715,261.487579 870.044189,258.321686 868.637451,250.937744 
	C866.384888,239.113525 859.346436,233.053146 847.507751,230.990433 
	C840.586060,229.784424 834.181030,225.726501 827.265198,224.346497 
	C816.846191,222.267471 806.218079,220.885635 795.614319,220.185715 
	C785.841125,219.540634 777.742249,216.399704 771.976440,208.422989 
	C769.239624,204.636734 766.373962,202.368759 761.307922,202.944946 
	C757.930420,203.329117 751.556885,198.103851 751.973938,195.250137 
	C752.347778,192.692398 754.218079,189.150391 756.346558,188.274643 
	C763.092957,185.498779 768.049622,181.735565 769.161987,174.104324 
	C769.243958,173.541977 770.177185,173.136597 770.353577,172.549744 
	C771.416565,169.012161 773.369263,165.360092 773.082031,161.907990 
	C772.804871,158.577209 770.585632,155.149155 768.511841,152.274399 
	C761.810486,142.984818 762.050903,134.675659 769.697021,126.223907 
	C770.701965,125.113129 771.871582,124.052879 772.529297,122.749397 
	C773.532227,120.761765 774.155029,118.582291 774.939209,116.484268 
	C772.934753,115.859818 770.935730,114.729774 768.924744,114.707863 
	C763.388184,114.647537 758.650513,113.002914 754.040527,109.862762 
	C747.539124,105.434227 740.594971,103.216370 732.423828,106.224609 
	C725.345337,108.830589 717.913818,111.495056 710.499512,111.970802 
	C692.028625,113.156036 673.491455,110.898697 654.973877,114.880005 
	C646.314819,116.741714 636.801331,114.816925 627.689026,114.342339 
	C611.236206,113.485428 595.771240,118.080505 580.192261,122.364105 
	C573.508972,124.201729 566.452271,124.715919 559.813965,126.674438 
	C546.835571,130.503464 536.923584,141.245560 523.033997,143.328674 
	C521.069580,143.623291 519.297302,145.423431 517.510986,146.636932 
	C513.381409,149.442291 509.551880,152.833267 505.120300,155.007736 
	C501.094452,156.983109 496.407959,158.798996 492.058136,158.699463 
	C480.121307,158.426346 468.220154,156.867294 456.282074,156.284821 
	C447.378082,155.850388 438.883057,155.221451 434.431122,145.788055 
	C434.226807,145.355103 433.787750,145.028732 433.443237,144.666794 
	C424.936737,135.730225 413.756775,137.207916 408.173920,148.298798 
	C401.534943,161.487946 395.070465,174.772949 388.926483,188.197693 
	C387.341614,191.660629 386.023743,193.718613 381.809143,193.206268 
	C380.108337,192.999542 377.957794,194.103729 376.441040,195.203262 
	C371.093994,199.079590 365.821259,203.077118 360.727997,207.280334 
	C353.410492,213.319107 346.211884,219.507309 339.115570,225.804214 
	C337.700653,227.059738 336.807709,229.010986 335.959015,230.778259 
	C332.448425,238.088684 330.231781,245.683563 328.394226,253.687958 
	C326.383392,262.446991 324.483185,270.799042 326.156311,279.663452 
	C327.316071,285.808075 325.861145,291.326660 322.183655,296.137268 
	C316.329559,303.795197 310.579132,311.595886 304.052551,318.659546 
	C296.525330,326.806183 287.089142,332.199280 276.243195,335.184631 
	C265.215363,338.219971 255.063065,341.917206 250.685837,354.714417 
	C247.541397,363.907501 241.665634,371.888336 232.740189,377.338776 
	C229.189438,379.507050 226.852310,383.895691 224.395950,387.563660 
	C221.380432,392.066620 218.713776,396.816010 216.107910,401.574738 
	C214.933929,403.718628 213.368179,406.210632 213.533752,408.428711 
	C214.279892,418.423615 208.340286,424.777405 202.312317,431.377106 
	C199.207443,434.776459 196.238983,438.559937 194.262604,442.675812 
	C190.263336,451.004333 187.012161,459.690521 183.377319,468.197083 
	C182.732758,469.705536 182.052032,471.495789 180.830200,472.412170 
	C172.775986,478.452728 171.431732,487.785858 168.829544,496.455627 
	C166.903046,502.874115 167.396835,508.917755 172.599167,513.994812 
	C174.969818,516.308411 176.864395,519.102478 179.072037,521.592407 
	C181.489410,524.318970 181.976349,527.120117 181.000488,530.771729 
	C178.772858,539.107422 178.310501,547.911011 181.909515,555.710388 
	C188.477386,569.943604 185.284332,583.712585 181.822189,597.655884 
	C180.197067,604.200867 178.184021,610.649048 176.530487,617.187561 
	C175.882370,619.750427 175.798264,622.450867 175.352432,625.070862 
	C173.346680,636.857422 165.504913,644.741882 157.158432,652.321716 
	C151.491440,657.468079 151.498230,659.880737 158.302338,663.392517 
	C165.705200,667.213379 168.470200,672.955627 168.056381,680.844543 
	C167.855759,684.669312 168.132141,688.544434 167.637375,692.324036 
	C165.921692,705.430481 170.663925,715.862976 180.644623,724.013123 
	C185.019241,727.585388 190.909592,729.462708 192.725098,735.705261 
	C192.922958,736.385681 193.814011,737.156860 194.528397,737.350037 
	C203.022552,739.645996 207.265457,746.248352 211.104248,753.354736 
	C211.798264,754.639526 213.073669,755.601257 214.027603,756.755981 
	C221.965332,766.363770 229.966980,775.920715 237.753433,785.649780 
	C239.260208,787.532471 240.421967,790.001404 240.877289,792.366516 
	C244.637192,811.897034 256.764984,825.142334 272.592133,835.929688 
	C284.252808,843.877197 295.709320,852.145935 306.971069,860.649963 
	C315.045319,866.746948 322.089630,874.361084 330.602386,879.685120 
	C340.983459,886.177673 352.238770,891.401978 363.502258,896.283447 
	C367.414825,897.979126 372.716675,898.034058 376.966461,897.044739 
	C384.656799,895.254700 392.110901,892.320984 399.527222,889.505554 
	C427.273499,878.972290 455.400055,875.790405 483.947906,885.682007 
	C491.306458,888.231750 497.735779,887.901001 504.529114,884.526001 
	C511.958313,880.835144 519.322510,876.592285 527.215088,874.350891 
	C540.025208,870.712891 552.780579,867.305908 564.334412,860.399292 
	C566.272461,859.240784 568.682556,858.646912 570.951843,858.305115 
	C583.409729,856.428589 595.953796,855.052795 608.339050,852.795959 
	C614.513672,851.670715 619.767761,852.983582 624.218811,856.640442 
	C628.250977,859.953186 632.121704,863.860535 634.864624,868.254272 
	C639.339417,875.422485 642.972168,883.134033 646.706665,890.740784 
	C649.571289,896.575562 653.980408,899.832947 660.340576,901.237549 
	C673.092041,904.053711 685.512512,901.633179 698.004700,899.618347 
	C704.768799,898.527344 711.119995,898.826965 718.017395,901.006592 
	C724.591125,903.083984 728.989746,905.990051 732.258545,911.791016 
	C733.383423,913.787292 736.351196,914.654541 737.996033,916.472778 
	C739.814392,918.483093 742.217957,920.919189 742.371399,923.298584 
	C742.803589,929.999390 742.847290,936.862000 741.851624,943.481384 
	C740.770447,950.669128 738.263977,957.635010 736.564331,964.742004 
	C736.115601,966.618591 736.400391,968.662354 736.258606,970.622742 
	C736.073792,973.176941 736.091248,975.793640 735.506775,978.261536 
	C733.983887,984.691345 731.581299,990.973572 730.702820,997.473267 
	C730.134644,1001.677002 729.104004,1005.016602 726.255737,1008.142822 
	C724.434814,1010.141418 722.077026,1012.995728 722.286743,1015.249939 
	C722.943115,1022.305969 723.675964,1029.677002 726.304199,1036.143555 
	C729.386719,1043.727661 733.899353,1050.934570 738.846497,1057.511597 
	C747.548767,1069.080811 757.177917,1079.947876 766.174377,1091.302734 
	C771.732849,1098.318481 777.260864,1105.426392 782.031738,1112.979858 
	C786.958191,1120.779663 790.955078,1129.166992 795.345581,1137.304443 
	C795.738586,1138.032715 796.084290,1138.794800 796.370178,1139.571289 
	C801.134155,1152.509521 806.171143,1165.358643 810.467773,1178.450684 
	C811.789551,1182.478271 811.989685,1187.368408 811.096008,1191.517334 
	C809.611450,1198.409424 809.257507,1205.004517 811.583740,1211.653320 
	C815.204834,1222.002563 819.532898,1232.154663 822.389282,1242.707642 
	C825.541016,1254.351440 825.345886,1265.565063 817.111816,1276.180786 
	C810.182556,1285.114136 803.025452,1294.327881 800.081177,1305.750488 
	C796.678406,1318.951660 793.313416,1332.163696 789.761047,1345.324829 
	C788.817566,1348.820068 787.180969,1352.123047 785.981995,1355.556030 
	C784.744629,1359.098633 782.820618,1362.653076 782.651733,1366.270264 
	C782.123840,1377.580078 782.225159,1388.921997 782.235596,1400.251465 
	C782.237244,1402.008789 782.457214,1404.424927 783.571716,1405.410522 
	C789.002075,1410.212036 790.537109,1416.783081 792.550842,1423.210693 
	C792.937927,1424.446289 793.792847,1425.558228 794.537537,1426.655640 
	C804.760620,1441.721680 812.039856,1458.231812 818.952576,1474.999512 
	C822.742310,1484.191772 827.355347,1493.159302 832.603027,1501.603027 
	C837.730286,1509.852783 841.260803,1518.359375 842.183228,1527.998047 
	C843.305542,1539.725952 843.359131,1551.639648 848.235535,1562.731079 
	C848.820984,1564.062622 848.849426,1565.649536 849.074524,1567.127319 
	C851.076721,1580.272095 852.803101,1593.465820 855.147095,1606.549072 
	C856.787354,1615.704468 858.841980,1624.818848 866.039246,1631.781006 
	C867.667786,1633.356323 868.033997,1636.236572 869.078613,1639.279419 
M1496.012085,1441.105713 
	C1497.751831,1444.818604 1496.907837,1448.104370 1494.687744,1451.395386 
	C1492.650269,1454.415771 1491.099976,1457.760620 1489.137695,1460.836670 
	C1485.685059,1466.249512 1482.595093,1472.016113 1478.401367,1476.800293 
	C1473.957642,1481.869507 1470.455688,1486.935913 1470.230835,1493.870850 
	C1470.166870,1495.842163 1469.505127,1497.786499 1469.245605,1499.760010 
	C1468.190796,1507.777344 1467.615601,1515.641846 1473.155396,1522.655273 
	C1474.249268,1524.040039 1474.638794,1526.896729 1474.014648,1528.577393 
	C1469.195190,1541.554810 1474.370361,1553.316895 1479.208984,1564.528320 
	C1484.118530,1575.904297 1495.953125,1580.249512 1506.358276,1585.251587 
	C1509.017944,1586.530029 1513.333862,1584.735229 1516.781738,1583.906860 
	C1521.033325,1582.885376 1525.186523,1581.439819 1529.357910,1580.101685 
	C1535.281738,1578.201538 1542.502808,1577.714600 1546.763672,1573.921265 
	C1552.224854,1569.059570 1556.647583,1562.003906 1559.173950,1555.042969 
	C1573.510376,1515.541992 1587.365601,1475.861694 1600.915283,1436.082520 
	C1606.415161,1419.936279 1613.490723,1404.209351 1615.523804,1386.978638 
	C1615.736938,1385.172363 1617.503418,1382.997437 1619.156006,1382.030518 
	C1622.359009,1380.156006 1622.929565,1377.953857 1622.109375,1374.565918 
	C1620.985352,1369.923218 1620.318848,1365.169556 1619.346680,1359.865112 
	C1621.547119,1359.865112 1623.173706,1359.913818 1624.796753,1359.856934 
	C1631.826294,1359.610718 1636.233765,1355.461060 1636.719727,1348.391235 
	C1636.889648,1345.920288 1636.761841,1343.377441 1636.378296,1340.928833 
	C1634.708374,1330.265747 1632.970337,1319.611938 1631.091309,1308.984009 
	C1630.430420,1305.246216 1629.779541,1301.381226 1628.281250,1297.941406 
	C1624.587402,1289.461304 1620.427490,1281.182983 1616.407593,1272.846313 
	C1614.994019,1269.914917 1612.834106,1268.080566 1609.303833,1268.605347 
	C1602.239746,1269.655518 1595.318237,1278.106445 1594.392212,1285.287476 
	C1593.911377,1289.017822 1591.698486,1292.664062 1589.655762,1295.969849 
	C1589.036011,1296.972656 1586.376343,1296.760376 1584.638062,1297.017822 
	C1579.708496,1297.747925 1577.459351,1300.510864 1577.563110,1305.492432 
	C1577.600342,1307.285522 1577.708252,1309.326904 1576.954468,1310.842163 
	C1574.177856,1316.423340 1570.670532,1321.661865 1568.154785,1327.346436 
	C1564.828491,1334.863037 1557.300171,1336.695801 1551.402100,1340.698242 
	C1548.855591,1342.426392 1545.588257,1343.054932 1542.888550,1344.602173 
	C1538.198120,1347.290405 1533.942017,1350.855103 1529.054443,1353.052734 
	C1521.560547,1356.422607 1513.681396,1358.934082 1505.974121,1361.832153 
	C1501.298096,1363.590332 1499.329224,1367.229614 1498.074951,1371.917358 
	C1497.086304,1375.612549 1495.437012,1379.491211 1492.988159,1382.352905 
	C1489.143555,1386.845947 1487.118042,1391.537231 1487.861450,1397.369385 
	C1488.365479,1401.323608 1488.765015,1405.307861 1489.575073,1409.203003 
	C1491.723999,1419.534790 1497.295898,1429.160400 1496.012085,1441.105713 
z"/>
<path fill="#FDFEFD" opacity="1.000000" stroke="none" 
	d="
M869.029907,1638.897705 
	C868.033997,1636.236572 867.667786,1633.356323 866.039246,1631.781006 
	C858.841980,1624.818848 856.787354,1615.704468 855.147095,1606.549072 
	C852.803101,1593.465820 851.076721,1580.272095 849.074524,1567.127319 
	C848.849426,1565.649536 848.820984,1564.062622 848.235535,1562.731079 
	C843.359131,1551.639648 843.305542,1539.725952 842.183228,1527.998047 
	C841.260803,1518.359375 837.730286,1509.852783 832.603027,1501.603027 
	C827.355347,1493.159302 822.742310,1484.191772 818.952576,1474.999512 
	C812.039856,1458.231812 804.760620,1441.721680 794.537537,1426.655640 
	C793.792847,1425.558228 792.937927,1424.446289 792.550842,1423.210693 
	C790.537109,1416.783081 789.002075,1410.212036 783.571716,1405.410522 
	C782.457214,1404.424927 782.237244,1402.008789 782.235596,1400.251465 
	C782.225159,1388.921997 782.123840,1377.580078 782.651733,1366.270264 
	C782.820618,1362.653076 784.744629,1359.098633 785.981995,1355.556030 
	C787.180969,1352.123047 788.817566,1348.820068 789.761047,1345.324829 
	C793.313416,1332.163696 796.678406,1318.951660 800.081177,1305.750488 
	C803.025452,1294.327881 810.182556,1285.114136 817.111816,1276.180786 
	C825.345886,1265.565063 825.541016,1254.351440 822.389282,1242.707642 
	C819.532898,1232.154663 815.204834,1222.002563 811.583740,1211.653320 
	C809.257507,1205.004517 809.611450,1198.409424 811.096008,1191.517334 
	C811.989685,1187.368408 811.789551,1182.478271 810.467773,1178.450684 
	C806.171143,1165.358643 801.134155,1152.509521 796.370178,1139.571289 
	C796.084290,1138.794800 795.738586,1138.032715 795.345581,1137.304443 
	C790.955078,1129.166992 786.958191,1120.779663 782.031738,1112.979858 
	C777.260864,1105.426392 771.732849,1098.318481 766.174377,1091.302734 
	C757.177917,1079.947876 747.548767,1069.080811 738.846497,1057.511597 
	C733.899353,1050.934570 729.386719,1043.727661 726.304199,1036.143555 
	C723.675964,1029.677002 722.943115,1022.305969 722.286743,1015.249939 
	C722.077026,1012.995728 724.434814,1010.141418 726.255737,1008.142822 
	C729.104004,1005.016602 730.134644,1001.677002 730.702820,997.473267 
	C731.581299,990.973572 733.983887,984.691345 735.506775,978.261536 
	C736.091248,975.793640 736.073792,973.176941 736.258606,970.622742 
	C736.400391,968.662354 736.115601,966.618591 736.564331,964.742004 
	C738.263977,957.635010 740.770447,950.669128 741.851624,943.481384 
	C742.847290,936.862000 742.803589,929.999390 742.371399,923.298584 
	C742.217957,920.919189 739.814392,918.483093 737.996033,916.472778 
	C736.351196,914.654541 733.383423,913.787292 732.258545,911.791016 
	C728.989746,905.990051 724.591125,903.083984 718.017395,901.006592 
	C711.119995,898.826965 704.768799,898.527344 698.004700,899.618347 
	C685.512512,901.633179 673.092041,904.053711 660.340576,901.237549 
	C653.980408,899.832947 649.571289,896.575562 646.706665,890.740784 
	C642.972168,883.134033 639.339417,875.422485 634.864624,868.254272 
	C632.121704,863.860535 628.250977,859.953186 624.218811,856.640442 
	C619.767761,852.983582 614.513672,851.670715 608.339050,852.795959 
	C595.953796,855.052795 583.409729,856.428589 570.951843,858.305115 
	C568.682556,858.646912 566.272461,859.240784 564.334412,860.399292 
	C552.780579,867.305908 540.025208,870.712891 527.215088,874.350891 
	C519.322510,876.592285 511.958313,880.835144 504.529114,884.526001 
	C497.735779,887.901001 491.306458,888.231750 483.947906,885.682007 
	C455.400055,875.790405 427.273499,878.972290 399.527222,889.505554 
	C392.110901,892.320984 384.656799,895.254700 376.966461,897.044739 
	C372.716675,898.034058 367.414825,897.979126 363.502258,896.283447 
	C352.238770,891.401978 340.983459,886.177673 330.602386,879.685120 
	C322.089630,874.361084 315.045319,866.746948 306.971069,860.649963 
	C295.709320,852.145935 284.252808,843.877197 272.592133,835.929688 
	C256.764984,825.142334 244.637192,811.897034 240.877289,792.366516 
	C240.421967,790.001404 239.260208,787.532471 237.753433,785.649780 
	C229.966980,775.920715 221.965332,766.363770 214.027603,756.755981 
	C213.073669,755.601257 211.798264,754.639526 211.104248,753.354736 
	C207.265457,746.248352 203.022552,739.645996 194.528397,737.350037 
	C193.814011,737.156860 192.922958,736.385681 192.725098,735.705261 
	C190.909592,729.462708 185.019241,727.585388 180.644623,724.013123 
	C170.663925,715.862976 165.921692,705.430481 167.637375,692.324036 
	C168.132141,688.544434 167.855759,684.669312 168.056381,680.844543 
	C168.470200,672.955627 165.705200,667.213379 158.302338,663.392517 
	C151.498230,659.880737 151.491440,657.468079 157.158432,652.321716 
	C165.504913,644.741882 173.346680,636.857422 175.352432,625.070862 
	C175.798264,622.450867 175.882370,619.750427 176.530487,617.187561 
	C178.184021,610.649048 180.197067,604.200867 181.822189,597.655884 
	C185.284332,583.712585 188.477386,569.943604 181.909515,555.710388 
	C178.310501,547.911011 178.772858,539.107422 181.000488,530.771729 
	C181.976349,527.120117 181.489410,524.318970 179.072037,521.592407 
	C176.864395,519.102478 174.969818,516.308411 172.599167,513.994812 
	C167.396835,508.917755 166.903046,502.874115 168.829544,496.455627 
	C171.431732,487.785858 172.775986,478.452728 180.830200,472.412170 
	C182.052032,471.495789 182.732758,469.705536 183.377319,468.197083 
	C187.012161,459.690521 190.263336,451.004333 194.262604,442.675812 
	C196.238983,438.559937 199.207443,434.776459 202.312317,431.377106 
	C208.340286,424.777405 214.279892,418.423615 213.533752,408.428711 
	C213.368179,406.210632 214.933929,403.718628 216.107910,401.574738 
	C218.713776,396.816010 221.380432,392.066620 224.395950,387.563660 
	C226.852310,383.895691 229.189438,379.507050 232.740189,377.338776 
	C241.665634,371.888336 247.541397,363.907501 250.685837,354.714417 
	C255.063065,341.917206 265.215363,338.219971 276.243195,335.184631 
	C287.089142,332.199280 296.525330,326.806183 304.052551,318.659546 
	C310.579132,311.595886 316.329559,303.795197 322.183655,296.137268 
	C325.861145,291.326660 327.316071,285.808075 326.156311,279.663452 
	C324.483185,270.799042 326.383392,262.446991 328.394226,253.687958 
	C330.231781,245.683563 332.448425,238.088684 335.959015,230.778259 
	C336.807709,229.010986 337.700653,227.059738 339.115570,225.804214 
	C346.211884,219.507309 353.410492,213.319107 360.727997,207.280334 
	C365.821259,203.077118 371.093994,199.079590 376.441040,195.203262 
	C377.957794,194.103729 380.108337,192.999542 381.809143,193.206268 
	C386.023743,193.718613 387.341614,191.660629 388.926483,188.197693 
	C395.070465,174.772949 401.534943,161.487946 408.173920,148.298798 
	C413.756775,137.207916 424.936737,135.730225 433.443237,144.666794 
	C433.787750,145.028732 434.226807,145.355103 434.431122,145.788055 
	C438.883057,155.221451 447.378082,155.850388 456.282074,156.284821 
	C468.220154,156.867294 480.121307,158.426346 492.058136,158.699463 
	C496.407959,158.798996 501.094452,156.983109 505.120300,155.007736 
	C509.551880,152.833267 513.381409,149.442291 517.510986,146.636932 
	C519.297302,145.423431 521.069580,143.623291 523.033997,143.328674 
	C536.923584,141.245560 546.835571,130.503464 559.813965,126.674438 
	C566.452271,124.715919 573.508972,124.201729 580.192261,122.364105 
	C595.771240,118.080505 611.236206,113.485428 627.689026,114.342339 
	C636.801331,114.816925 646.314819,116.741714 654.973877,114.880005 
	C673.491455,110.898697 692.028625,113.156036 710.499512,111.970802 
	C717.913818,111.495056 725.345337,108.830589 732.423828,106.224609 
	C740.594971,103.216370 747.539124,105.434227 754.040527,109.862762 
	C758.650513,113.002914 763.388184,114.647537 768.924744,114.707863 
	C770.935730,114.729774 772.934753,115.859818 774.939209,116.484268 
	C774.155029,118.582291 773.532227,120.761765 772.529297,122.749397 
	C771.871582,124.052879 770.701965,125.113129 769.697021,126.223907 
	C762.050903,134.675659 761.810486,142.984818 768.511841,152.274399 
	C770.585632,155.149155 772.804871,158.577209 773.082031,161.907990 
	C773.369263,165.360092 771.416565,169.012161 770.353577,172.549744 
	C770.177185,173.136597 769.243958,173.541977 769.161987,174.104324 
	C768.049622,181.735565 763.092957,185.498779 756.346558,188.274643 
	C754.218079,189.150391 752.347778,192.692398 751.973938,195.250137 
	C751.556885,198.103851 757.930420,203.329117 761.307922,202.944946 
	C766.373962,202.368759 769.239624,204.636734 771.976440,208.422989 
	C777.742249,216.399704 785.841125,219.540634 795.614319,220.185715 
	C806.218079,220.885635 816.846191,222.267471 827.265198,224.346497 
	C834.181030,225.726501 840.586060,229.784424 847.507751,230.990433 
	C859.346436,233.053146 866.384888,239.113525 868.637451,250.937744 
	C870.044189,258.321686 875.295715,261.487579 882.218689,263.007355 
	C891.724792,265.094269 901.509644,266.643738 910.497192,270.157288 
	C919.684631,273.748932 928.186584,279.209412 936.745422,284.263611 
	C946.729492,290.159485 962.018005,284.409790 964.918762,273.087860 
	C965.526978,270.714050 965.069092,267.765198 964.245239,265.377014 
	C959.942566,252.903931 960.778870,246.352493 971.242798,238.560654 
	C983.084656,229.742706 995.879517,221.102631 1011.793701,224.085999 
	C1019.073853,225.450760 1026.134766,229.077209 1032.739380,232.692963 
	C1042.274902,237.913361 1051.735718,242.702927 1062.729980,244.257401 
	C1066.767822,244.828308 1070.950439,247.006027 1074.234741,249.532745 
	C1077.496460,252.042160 1080.626343,252.875214 1084.593994,253.270233 
	C1094.135132,254.220123 1103.664795,255.602112 1113.078979,257.428467 
	C1124.821655,259.706543 1136.392944,262.866455 1148.133301,265.158203 
	C1158.494263,267.180756 1168.354614,265.760590 1176.750610,258.625244 
	C1181.091309,254.936279 1186.067017,253.324615 1191.751221,252.669296 
	C1198.143555,251.932343 1204.374634,249.889542 1210.747437,248.855804 
	C1214.732788,248.209335 1218.176636,249.037476 1221.362183,252.574753 
	C1223.687378,255.156586 1227.859131,256.908813 1231.427368,257.384674 
	C1243.121338,258.944244 1254.910034,259.819458 1266.674805,260.809662 
	C1270.491821,261.130951 1273.788818,260.184998 1274.224487,254.009903 
	C1276.722534,256.839752 1279.115479,258.466187 1279.953125,260.680847 
	C1284.356567,272.323456 1288.875732,283.969940 1292.276367,295.921875 
	C1293.742920,301.076508 1293.286499,307.066254 1292.508789,312.505737 
	C1291.264404,321.208923 1289.034058,329.771790 1287.197998,338.389191 
	C1286.748413,340.498840 1286.375366,342.645538 1285.685425,344.679688 
	C1282.545166,353.938171 1278.575928,355.058167 1271.745728,348.982452 
	C1267.877441,350.331116 1270.740723,356.939484 1265.144043,356.970306 
	C1265.334473,358.315033 1265.163574,359.857422 1265.773560,360.972748 
	C1270.057739,368.805939 1274.534302,376.533722 1278.870361,384.339020 
	C1279.752075,385.926239 1280.003174,387.913910 1281.046265,389.353851 
	C1293.104370,406.000244 1296.800415,427.011810 1309.287964,443.453674 
	C1310.268799,444.745056 1310.512939,447.354828 1309.942505,448.933929 
	C1307.478516,455.754852 1308.556763,459.939026 1314.433838,464.764160 
	C1319.682495,469.073456 1324.715088,473.651154 1330.038330,477.863617 
	C1340.817627,486.393677 1344.964111,498.281616 1346.999146,511.155273 
	C1348.607300,521.328247 1349.209595,531.682434 1351.224487,541.763123 
	C1353.507935,553.186401 1359.965332,562.070129 1368.946167,569.834778 
	C1379.241211,578.735718 1386.769165,590.055603 1389.942017,603.663879 
	C1392.810181,615.965271 1397.040283,627.566589 1405.608398,637.187561 
	C1407.293701,639.079895 1408.745117,641.317200 1410.589111,639.565186 
	C1412.879883,641.553589 1414.939453,643.374512 1417.040039,645.146973 
	C1417.800049,645.788147 1418.661499,646.308105 1419.470459,646.892090 
	C1427.939087,653.005432 1436.419189,659.102905 1444.863647,665.249268 
	C1446.605591,666.517090 1448.361450,667.824890 1449.859619,669.359436 
	C1460.320190,680.075134 1470.836548,690.741455 1481.049561,701.690063 
	C1483.810425,704.649841 1485.806152,708.409302 1487.754395,712.016907 
	C1489.688721,715.598572 1489.604004,719.369751 1487.326050,722.942139 
	C1484.993408,726.600220 1485.598755,730.130249 1488.683228,732.820374 
	C1495.439697,738.713318 1502.253296,744.582825 1509.477173,749.869385 
	C1511.344116,751.235535 1515.141846,751.301819 1517.495972,750.441833 
	C1530.557129,745.669983 1543.910522,742.594177 1557.800537,741.743591 
	C1559.909546,741.614441 1562.217041,741.095703 1564.011475,740.040771 
	C1576.265747,732.837158 1589.958374,731.837830 1603.557251,731.194153 
	C1619.864746,730.422363 1634.083740,724.058655 1648.204590,716.805054 
	C1650.474854,715.638794 1654.025879,715.433960 1656.398071,716.333069 
	C1660.640869,717.941101 1664.437012,720.727783 1669.584473,723.692383 
	C1659.813110,727.702271 1662.935181,734.892761 1663.511963,741.156738 
	C1664.088257,747.418213 1663.405518,753.180115 1661.214966,759.192566 
	C1659.447876,764.042664 1659.305176,769.622620 1659.180176,774.896240 
	C1659.040649,780.778137 1657.075073,785.594055 1652.955566,789.619995 
	C1648.183716,794.283264 1645.518311,799.792969 1643.821411,806.373169 
	C1642.368530,812.006409 1638.503784,816.997192 1635.872437,822.353943 
	C1633.978027,826.210754 1632.459961,830.251587 1630.587769,834.120239 
	C1628.512573,838.408142 1626.263672,842.613770 1624.018677,846.817017 
	C1622.225220,850.174622 1620.300903,853.462158 1618.485107,856.808105 
	C1617.932373,857.826538 1617.697266,859.036438 1617.061523,859.988098 
	C1606.556274,875.710449 1595.795166,891.266602 1585.525757,907.140808 
	C1571.589478,928.683350 1550.206787,941.755127 1530.366699,956.636597 
	C1523.632324,961.687744 1515.879028,965.709167 1512.009766,973.849731 
	C1511.813843,974.262024 1511.386353,974.752197 1510.981079,974.849487 
	C1500.934937,977.260681 1495.684082,986.326416 1487.710693,991.604919 
	C1486.895630,992.144592 1486.164185,992.912842 1485.604614,993.720825 
	C1475.774414,1007.915649 1465.932739,1022.102844 1456.212891,1036.373047 
	C1454.413086,1039.015381 1453.116943,1041.750610 1449.274658,1042.088501 
	C1448.004761,1042.200195 1446.500366,1043.885864 1445.777100,1045.217896 
	C1443.007324,1050.318481 1438.716797,1053.548462 1433.552490,1055.749756 
	C1429.323120,1057.552490 1426.531006,1060.465332 1424.933350,1064.838379 
	C1422.142700,1072.476685 1419.062012,1080.009155 1416.090454,1087.581055 
	C1415.792725,1088.339844 1415.573364,1089.220581 1415.040894,1089.782593 
	C1404.768555,1100.628906 1402.116089,1114.814697 1398.272827,1128.419189 
	C1397.221191,1132.141602 1397.917725,1136.015625 1401.136108,1138.990601 
	C1402.052246,1139.837524 1402.543213,1141.207520 1403.061646,1142.409912 
	C1405.008789,1146.926758 1406.886475,1151.473511 1409.070068,1156.675903 
	C1404.503784,1161.174683 1405.618042,1167.759644 1405.271362,1174.263062 
	C1404.735107,1184.324341 1406.376099,1194.038086 1408.056885,1203.830200 
	C1409.599365,1212.815186 1414.569580,1219.909912 1420.860718,1225.883301 
	C1426.388550,1231.132080 1428.521362,1236.815674 1428.459351,1244.410522 
	C1428.276978,1266.735474 1428.785522,1289.065918 1429.041382,1311.394165 
	C1429.056641,1312.721313 1428.822021,1314.263794 1429.394409,1315.338013 
	C1433.582153,1323.196533 1430.774658,1330.367432 1427.899902,1337.816406 
	C1421.573364,1354.208862 1411.885376,1368.078125 1397.852905,1378.656006 
	C1393.797729,1381.712891 1388.958374,1383.767334 1384.377075,1386.080566 
	C1374.742065,1390.945557 1364.967896,1395.538818 1355.390381,1400.512207 
	C1348.940308,1403.861572 1344.385742,1409.085327 1340.007935,1415.027100 
	C1335.472778,1421.182617 1328.850708,1425.826660 1323.013794,1430.987427 
	C1319.182373,1434.374878 1315.172852,1437.567871 1311.151978,1440.731812 
	C1308.188965,1443.063232 1305.315430,1445.689087 1301.981567,1447.329224 
	C1295.875610,1450.333374 1293.232910,1455.730957 1295.892090,1462.024048 
	C1298.906738,1469.158691 1302.524048,1476.051880 1305.269897,1483.281616 
	C1306.767578,1487.225586 1307.241455,1491.619873 1307.754883,1495.862183 
	C1308.589355,1502.759399 1309.076782,1509.698608 1309.712280,1516.619995 
	C1309.788208,1517.448486 1310.009766,1518.289185 1309.933105,1519.102417 
	C1309.000977,1528.982544 1308.177979,1538.876587 1306.999634,1548.728027 
	C1306.377441,1553.930786 1303.612305,1557.888428 1298.940063,1560.681519 
	C1293.820068,1563.742310 1289.260864,1567.833130 1283.957642,1570.470825 
	C1278.089111,1573.389893 1271.592285,1575.018311 1265.489868,1577.505493 
	C1261.863770,1578.983276 1258.396606,1580.905273 1255.000732,1582.873657 
	C1253.003906,1584.031128 1251.492188,1586.281494 1249.406494,1586.983643 
	C1242.005493,1589.475342 1241.221802,1594.533691 1242.963013,1601.109497 
	C1243.810791,1604.310669 1244.255615,1607.640991 1244.623291,1610.941772 
	C1245.189209,1616.022095 1246.197510,1621.140625 1242.281982,1625.665649 
	C1241.231567,1626.879639 1240.880981,1629.116211 1240.984375,1630.836670 
	C1241.363281,1637.152466 1239.438721,1642.590576 1235.655762,1647.553101 
	C1234.354126,1649.260498 1233.228394,1651.164307 1232.358398,1653.127319 
	C1229.537720,1659.491333 1226.949341,1665.727539 1220.406372,1669.698730 
	C1217.753784,1671.308716 1216.896362,1675.640747 1214.690674,1678.292236 
	C1212.671753,1680.719482 1209.977173,1682.600586 1207.503540,1684.628662 
	C1205.625366,1686.168579 1202.803955,1687.143677 1201.815308,1689.088379 
	C1195.347412,1701.812500 1185.063110,1711.437866 1175.672119,1721.734619 
	C1162.315430,1736.379517 1148.874512,1751.022095 1132.704712,1762.711914 
	C1124.519409,1768.629395 1116.499023,1775.124023 1107.492798,1779.468140 
	C1096.350464,1784.842651 1084.266235,1788.200073 1071.443481,1786.119141 
	C1070.078857,1785.897705 1068.578125,1786.509399 1067.141357,1786.740601 
	C1062.485840,1787.489746 1057.779541,1789.108032 1053.184448,1788.837280 
	C1036.560181,1787.858398 1020.374573,1788.440552 1004.923767,1795.868164 
	C1001.259094,1797.629883 996.535950,1797.734253 992.315125,1797.664551 
	C986.294556,1797.565430 980.962097,1798.747559 975.701599,1801.837402 
	C964.215088,1808.584106 955.419312,1807.392334 944.946777,1798.981689 
	C940.466553,1795.383667 935.213745,1792.759399 930.637207,1789.266602 
	C925.109070,1785.047607 923.085632,1778.744751 921.732422,1772.207397 
	C921.080017,1769.055298 920.872437,1765.699341 919.608093,1762.809937 
	C917.243469,1757.406006 915.066467,1752.444702 920.294067,1747.319092 
	C921.434387,1746.201050 921.665771,1743.661743 921.537231,1741.831787 
	C921.064575,1735.106689 919.351562,1728.767090 915.112488,1723.255615 
	C913.828247,1721.585938 912.665894,1719.464600 912.410034,1717.429199 
	C911.641113,1711.310791 907.839600,1706.964478 904.804199,1702.003540 
	C902.293152,1697.899536 901.623047,1692.697144 899.940186,1688.052979 
	C895.387207,1675.488281 891.379211,1662.767334 880.442688,1653.584717 
	C875.872620,1649.747681 872.820801,1644.102539 869.029907,1638.897705 
M668.602173,453.066559 
	C698.014038,371.673859 727.425964,290.281128 756.823364,208.928482 
	C754.496338,207.075409 752.319580,205.532654 750.363525,203.747986 
	C744.885010,198.749557 743.455139,195.277908 747.008057,188.793457 
	C750.018738,183.298706 754.594299,178.422638 759.264954,174.129700 
	C767.104980,166.923828 767.857666,161.946030 761.013733,153.704666 
	C760.058472,152.554474 758.994080,151.490265 757.933655,150.432938 
	C753.032104,145.545822 752.507324,142.083252 754.945068,135.536118 
	C756.568542,131.176041 757.595215,126.593773 758.709351,122.733421 
	C754.465210,122.384644 750.225220,123.260796 748.304077,121.543221 
	C746.273071,119.727455 746.450806,115.441322 745.544861,111.750198 
	C740.526062,111.058006 729.931641,113.571411 724.076050,116.273720 
	C719.979370,118.164314 715.196045,120.230095 710.947754,119.824707 
	C696.867310,118.481064 682.991943,123.349136 668.954895,120.685867 
	C668.210693,120.544670 667.245667,120.827934 666.561707,121.222549 
	C659.102234,125.526382 651.053650,123.827797 643.122986,123.721199 
	C632.487671,123.578239 621.724243,122.705315 611.243713,123.996178 
	C599.123962,125.488953 587.224060,128.874130 575.284180,131.673920 
	C569.489380,133.032730 563.653687,134.507843 558.137878,136.691452 
	C551.362183,139.373810 545.146790,143.648590 538.239685,145.774857 
	C530.374573,148.196045 523.693481,152.158813 517.372559,157.109360 
	C514.359497,159.469162 511.428802,161.971237 508.218353,164.030991 
	C505.316406,165.892792 502.012085,168.678925 499.012390,168.528122 
	C491.788483,168.164948 484.506836,166.808075 477.504395,164.908539 
	C472.532776,163.559891 468.004517,162.930710 462.895325,164.178070 
	C448.097656,167.790787 437.133698,163.186462 429.019562,150.520584 
	C425.940826,145.714767 421.258911,144.881027 418.142761,149.644958 
	C414.110107,155.810059 411.353516,162.816025 408.116577,169.493408 
	C405.682587,174.514359 403.476105,179.648788 400.935577,184.613602 
	C399.580658,187.261490 397.427643,189.515289 396.179779,192.200211 
	C394.424011,195.978012 391.878357,198.124908 387.726562,199.016525 
	C385.445587,199.506363 382.851776,200.866425 381.436249,202.654999 
	C375.419586,210.257339 367.314423,214.546677 358.700104,218.293518 
	C353.778229,220.434296 350.212372,224.007187 348.707825,229.405212 
	C348.179260,231.301605 347.223511,233.083450 346.416534,234.897003 
	C342.244568,244.273148 337.563019,253.464966 334.103271,263.096130 
	C332.580109,267.336182 332.377930,272.802399 333.638214,277.108337 
	C335.376587,283.047577 334.805725,288.153961 332.426941,293.482422 
	C331.140350,296.364380 330.241760,299.441010 328.756866,302.209259 
	C321.977448,314.848083 314.052185,326.707245 300.059326,332.159821 
	C291.872559,335.349915 284.725800,340.015289 277.398438,344.573700 
	C274.758392,346.216064 271.871063,348.182434 268.940643,348.483582 
	C263.164459,349.077209 260.571320,352.346710 258.818237,357.269104 
	C254.907578,368.249451 248.330597,376.958862 238.322479,383.458160 
	C234.121658,386.186188 230.672577,390.922180 228.359085,395.493073 
	C225.397736,401.343903 223.597733,407.862732 221.916199,414.256500 
	C220.489197,419.682404 218.422745,424.247345 214.321472,428.408112 
	C209.960403,432.832306 206.234695,438.192841 203.402512,443.742157 
	C199.050339,452.269745 196.049347,461.483276 191.765945,470.051270 
	C189.782043,474.019623 186.095337,477.127319 183.241074,480.673828 
	C181.755325,482.519897 179.274902,484.412048 179.170334,486.385468 
	C178.501282,499.011292 177.569916,511.863739 187.859039,521.862854 
	C188.212280,522.206116 188.428650,522.687683 188.771378,523.044739 
	C191.341293,525.721375 191.719818,528.639893 190.556580,532.206909 
	C188.341003,539.000977 188.102478,545.883240 190.511551,552.786682 
	C196.540054,570.061890 194.346725,587.149658 189.220383,604.177917 
	C187.315231,610.506287 185.248169,616.835327 184.029465,623.309875 
	C181.984314,634.175171 178.589172,644.213806 170.384720,652.101990 
	C169.016281,653.417664 167.978363,655.077209 167.149521,656.121826 
	C169.633270,659.868103 171.990906,662.878296 173.759949,666.201843 
	C177.917938,674.013733 178.317566,682.219910 176.649918,690.915649 
	C175.147171,698.751526 176.655914,706.500244 180.610779,713.549927 
	C184.438278,720.372498 190.905334,722.232178 198.196365,723.090942 
	C204.269272,723.806213 205.828293,727.365051 203.281555,734.028625 
	C212.126251,738.229858 217.157928,746.257996 222.267044,754.282104 
	C223.578629,756.342041 225.588135,758.018127 227.473557,759.642334 
	C238.885803,769.474243 246.534241,782.066223 251.365448,795.922119 
	C255.035187,806.446838 260.457550,815.003174 268.998016,821.836548 
	C273.934875,825.786499 278.795807,829.834778 283.806641,833.688354 
	C302.662598,848.189392 321.682281,862.480469 340.395477,877.162720 
	C348.027405,883.150635 356.425873,887.224426 365.669464,889.647766 
	C371.287537,891.120544 376.832703,890.783203 382.089661,887.732910 
	C391.488861,882.278992 401.545319,878.839844 412.205017,876.309631 
	C435.419464,870.799377 458.333130,870.101807 480.989838,878.049683 
	C489.959595,881.196289 497.560577,881.220032 506.546906,876.690918 
	C514.737732,872.562683 519.363159,867.521851 522.357117,859.111450 
	C545.931824,792.887146 569.836243,726.780212 593.667175,660.647217 
	C618.517761,591.684448 643.399597,522.732910 668.602173,453.066559 
M1531.150635,948.657104 
	C1542.742798,941.066772 1554.543823,933.507080 1562.438965,921.847839 
	C1570.137573,910.478760 1582.458862,902.669678 1587.263062,889.130310 
	C1587.737427,887.793579 1588.938110,886.645447 1589.984741,885.591492 
	C1602.391235,873.097290 1609.081299,856.886169 1617.664795,842.011414 
	C1626.184570,827.247192 1632.452759,811.200500 1640.492065,796.134399 
	C1643.893555,789.759888 1647.438232,783.781738 1648.193115,776.413574 
	C1648.869141,769.814636 1649.253540,762.980408 1651.345581,756.783081 
	C1654.038940,748.804810 1656.934448,741.159912 1654.799194,732.597290 
	C1654.610596,731.840820 1655.079224,730.943115 1655.019531,730.127258 
	C1654.865601,728.021667 1654.586670,725.925293 1654.357666,723.825195 
	C1652.032471,724.152771 1649.232300,723.757446 1647.457764,724.923279 
	C1634.118652,733.686279 1619.453613,737.992859 1603.637695,738.166260 
	C1590.084351,738.314941 1577.288086,740.546753 1565.472778,747.766418 
	C1562.792358,749.404358 1558.747803,748.787170 1555.338135,749.259460 
	C1548.657349,750.184692 1541.575073,750.055908 1535.402466,752.357483 
	C1526.872437,755.537964 1518.394897,757.028992 1509.560913,755.937439 
	C1505.813354,755.474487 1501.925049,753.934631 1498.697266,751.925720 
	C1491.121704,747.210571 1483.901001,741.924744 1476.548584,736.852356 
	C1475.211914,735.930237 1473.932495,734.924866 1472.223999,733.659790 
	C1474.072021,731.619324 1475.556152,729.874023 1477.151733,728.237366 
	C1483.563110,721.661011 1483.733154,720.965149 1477.735474,713.818237 
	C1470.243530,704.890991 1461.894531,696.618530 1455.018433,687.253540 
	C1443.962646,672.195984 1427.667847,664.434814 1412.659424,654.795166 
	C1412.110107,654.442383 1411.375122,654.370728 1410.842773,654.001038 
	C1406.840210,651.222778 1401.782837,649.169067 1399.132446,645.420227 
	C1394.888672,639.417358 1391.768188,632.471741 1389.034546,625.582764 
	C1384.381470,613.856445 1380.385742,601.868835 1376.136108,589.983032 
	C1373.790283,583.422180 1369.572632,578.601562 1363.413208,575.242004 
	C1356.462036,571.450684 1350.924072,565.931763 1348.771362,558.255920 
	C1345.689819,547.268616 1342.128784,536.150452 1341.189697,524.886658 
	C1339.572266,505.490173 1331.574341,489.905273 1317.847046,476.699310 
	C1314.128296,473.121704 1310.536621,469.379456 1307.207275,465.441772 
	C1305.203979,463.072571 1302.644287,460.293610 1302.374390,457.501617 
	C1301.510010,448.559265 1297.040894,441.098541 1293.475220,433.315857 
	C1285.394531,415.678375 1276.880493,398.239288 1268.521240,380.729645 
	C1264.445190,372.191864 1260.489868,363.590302 1256.164185,355.179993 
	C1252.920410,348.873474 1250.034058,342.073242 1245.454834,336.833038 
	C1237.830566,328.108032 1233.757812,318.051208 1230.675659,307.252045 
	C1229.158936,301.937561 1230.981812,297.577209 1233.647217,292.831818 
	C1240.112427,296.048218 1243.795776,301.126617 1246.390747,307.208069 
	C1247.491699,309.788239 1248.331543,312.557678 1249.859497,314.863831 
	C1255.369751,323.181061 1261.064941,331.378204 1266.816284,339.531799 
	C1268.681519,342.175964 1270.933960,344.547058 1273.641235,347.803040 
	C1276.311890,340.627838 1278.802856,334.638702 1280.761475,328.480255 
	C1282.824463,321.992859 1284.754272,315.413483 1285.994873,308.735443 
	C1286.604126,305.456818 1286.122437,301.670715 1285.085083,298.452484 
	C1282.692627,291.030762 1279.704712,283.798065 1276.875366,276.520935 
	C1272.565186,265.435547 1272.551636,265.779694 1260.632202,266.359833 
	C1244.549072,267.142578 1228.647217,266.426788 1214.438110,257.215759 
	C1213.102661,256.350067 1210.924805,256.197632 1209.281494,256.498383 
	C1203.394531,257.575836 1197.602173,259.176056 1191.711182,260.225067 
	C1185.999146,261.242157 1181.314453,263.508850 1177.042847,267.700165 
	C1172.033936,272.614868 1165.397339,275.244995 1158.275635,273.884949 
	C1143.418457,271.047607 1128.655396,267.710754 1113.874878,264.481995 
	C1107.509766,263.091522 1101.197266,261.459778 1094.220337,259.783783 
	C1095.662354,263.499817 1096.796997,266.265106 1097.816040,269.072388 
	C1142.106934,391.103607 1186.378662,513.141724 1230.671631,635.172180 
	C1277.167725,763.272095 1323.652100,891.376343 1370.216797,1019.451355 
	C1379.017456,1043.657471 1388.137939,1067.747803 1397.205322,1091.856079 
	C1398.231689,1094.585083 1399.873291,1097.082520 1401.229736,1099.687378 
	C1401.723999,1099.567505 1402.218262,1099.447510 1402.712524,1099.327515 
	C1406.455444,1090.697632 1411.096802,1082.330933 1413.722778,1073.373535 
	C1417.318237,1061.109009 1424.900879,1052.997803 1435.625488,1046.968506 
	C1437.493286,1045.918457 1438.776489,1043.703125 1440.116211,1041.869995 
	C1441.844116,1039.505981 1443.177856,1036.842773 1444.994385,1034.557007 
	C1451.721558,1026.093140 1458.464233,1017.636719 1465.414551,1009.356506 
	C1473.393066,999.851135 1480.767090,989.615662 1489.905762,981.359985 
	C1502.723511,969.780701 1516.927246,959.735535 1531.150635,948.657104 
M898.177368,1661.560059 
	C899.928040,1666.381104 901.535217,1671.260498 903.468567,1676.007080 
	C905.513855,1681.028809 908.955200,1685.750122 909.784973,1690.923706 
	C910.619446,1696.126221 912.717407,1700.199341 915.305176,1704.491821 
	C922.580383,1716.559814 930.191650,1728.635498 928.750366,1743.667114 
	C928.463013,1746.663940 926.942688,1749.522827 926.366272,1752.517700 
	C925.893372,1754.975098 925.662842,1757.573120 925.923279,1760.045776 
	C926.104492,1761.766357 927.824036,1763.340576 927.953003,1765.048462 
	C928.617126,1773.841431 933.665405,1779.607056 940.455322,1784.413696 
	C945.206360,1787.776855 950.205078,1790.959961 954.323425,1795.006836 
	C960.289917,1800.869751 966.203064,1799.924194 972.308716,1796.089722 
	C980.989502,1790.638062 990.233948,1788.686035 1000.435791,1789.721191 
	C1003.463928,1790.028564 1007.019958,1788.802612 1009.794617,1787.289795 
	C1020.687256,1781.350708 1032.146362,1778.944092 1044.440186,1780.548096 
	C1052.621826,1781.615479 1060.692627,1781.904785 1068.312378,1777.864502 
	C1069.464233,1777.253662 1071.088867,1776.377319 1072.050903,1776.755005 
	C1077.843750,1779.028442 1082.904419,1776.071533 1088.332886,1775.440186 
	C1106.495117,1773.328247 1121.461914,1765.171021 1134.363403,1753.367432 
	C1150.183838,1738.893555 1164.983765,1723.299805 1180.105225,1708.071289 
	C1182.293823,1705.867310 1183.833740,1703.013672 1185.638550,1700.435913 
	C1187.887573,1697.223755 1189.687012,1693.571899 1192.416748,1690.847656 
	C1197.605225,1685.669067 1203.340698,1681.057373 1205.104126,1673.399536 
	C1205.343994,1672.357422 1206.188965,1671.225220 1207.079834,1670.598022 
	C1216.266602,1664.128296 1222.288696,1655.090210 1228.161865,1645.764160 
	C1230.651733,1641.810669 1232.603271,1638.306885 1232.090088,1633.421997 
	C1231.797974,1630.641602 1231.983521,1626.637573 1233.689331,1625.055298 
	C1237.730957,1621.306274 1237.185791,1617.265869 1236.727539,1612.741211 
	C1236.057495,1606.123169 1235.531494,1599.476929 1235.346069,1592.831543 
	C1235.292114,1590.897827 1236.020874,1588.205566 1237.391235,1587.086304 
	C1247.296631,1578.997803 1257.326050,1571.282471 1270.541260,1568.790894 
	C1280.325684,1566.946167 1282.351562,1562.642700 1279.154541,1553.313599 
	C1259.596436,1496.243286 1239.918091,1439.214111 1220.464844,1382.108276 
	C1219.190552,1378.367798 1217.496216,1377.446899 1213.776733,1377.451660 
	C1145.795654,1377.539185 1077.814575,1377.436157 1009.833374,1377.473022 
	C938.854004,1377.511475 867.874634,1377.655273 796.895264,1377.752686 
	C794.985229,1377.755371 793.075256,1377.753052 790.950562,1377.753052 
	C790.950562,1386.230103 790.913208,1393.881592 790.987061,1401.532104 
	C790.999451,1402.812012 791.188232,1404.268066 791.818420,1405.333496 
	C794.669983,1410.153687 797.950745,1414.730957 800.630981,1419.639282 
	C806.247009,1429.923462 811.731323,1440.285767 816.993164,1450.755005 
	C822.792358,1462.293701 827.701355,1474.317261 834.060059,1485.527222 
	C841.179199,1498.077759 847.120605,1510.889038 849.573914,1525.174438 
	C851.709167,1537.607788 853.969910,1550.020630 855.977844,1562.474365 
	C857.403320,1571.315674 858.325684,1580.239014 859.801331,1589.070923 
	C860.919678,1595.764893 862.781860,1602.334106 863.915344,1609.026123 
	C866.243958,1622.775024 874.023193,1633.563721 882.589600,1643.883301 
	C887.455383,1649.744873 892.816528,1655.195312 898.177368,1661.560059 
M861.916687,617.427063 
	C844.992371,669.942810 828.090210,722.465698 811.136414,774.971985 
	C798.013977,815.612671 784.852539,856.240845 771.659668,896.858704 
	C762.471313,925.148010 753.067078,953.367981 744.022949,981.703125 
	C739.530579,995.777466 735.404358,1009.981506 731.648071,1024.267700 
	C730.858643,1027.269897 731.472351,1031.435181 733.038452,1034.137817 
	C746.516663,1057.397705 765.147461,1076.843872 781.062744,1098.313354 
	C784.403687,1102.820190 787.686462,1107.466797 790.231018,1112.440552 
	C792.857910,1117.575073 794.748657,1123.120850 796.589050,1128.611572 
	C797.941162,1132.645752 800.065491,1134.168945 804.542786,1134.162964 
	C915.012085,1134.016357 1025.481689,1134.036987 1135.951172,1134.016113 
	C1137.681396,1134.015869 1139.411743,1133.871704 1141.644897,1133.772217 
	C1064.858276,907.411194 985.675964,682.496399 914.422607,454.883240 
	C896.981262,508.804962 879.539978,562.726685 861.916687,617.427063 
M1246.213623,328.211182 
	C1254.174927,340.242310 1262.553345,348.950104 1267.804077,350.196686 
	C1259.103149,338.285706 1250.667969,326.738525 1242.232666,315.191345 
	C1241.635254,315.551575 1241.037720,315.911804 1240.440308,316.272034 
	C1242.256836,320.032379 1244.073364,323.792694 1246.213623,328.211182 
M1240.547119,314.334473 
	C1240.451294,314.418823 1240.290039,314.494843 1240.277954,314.589905 
	C1240.265869,314.684937 1240.402832,314.798920 1240.474487,314.904541 
	C1240.570312,314.820221 1240.666138,314.735931 1240.547119,314.334473 
z"/>
<path fill="#FAFBFA" opacity="1.000000" stroke="none" 
	d="
M1495.969238,1440.661377 
	C1497.295898,1429.160400 1491.723999,1419.534790 1489.575073,1409.203003 
	C1488.765015,1405.307861 1488.365479,1401.323608 1487.861450,1397.369385 
	C1487.118042,1391.537231 1489.143555,1386.845947 1492.988159,1382.352905 
	C1495.437012,1379.491211 1497.086304,1375.612549 1498.074951,1371.917358 
	C1499.329224,1367.229614 1501.298096,1363.590332 1505.974121,1361.832153 
	C1513.681396,1358.934082 1521.560547,1356.422607 1529.054443,1353.052734 
	C1533.942017,1350.855103 1538.198120,1347.290405 1542.888550,1344.602173 
	C1545.588257,1343.054932 1548.855591,1342.426392 1551.402100,1340.698242 
	C1557.300171,1336.695801 1564.828491,1334.863037 1568.154785,1327.346436 
	C1570.670532,1321.661865 1574.177856,1316.423340 1576.954468,1310.842163 
	C1577.708252,1309.326904 1577.600342,1307.285522 1577.563110,1305.492432 
	C1577.459351,1300.510864 1579.708496,1297.747925 1584.638062,1297.017822 
	C1586.376343,1296.760376 1589.036011,1296.972656 1589.655762,1295.969849 
	C1591.698486,1292.664062 1593.911377,1289.017822 1594.392212,1285.287476 
	C1595.318237,1278.106445 1602.239746,1269.655518 1609.303833,1268.605347 
	C1612.834106,1268.080566 1614.994019,1269.914917 1616.407593,1272.846313 
	C1620.427490,1281.182983 1624.587402,1289.461304 1628.281250,1297.941406 
	C1629.779541,1301.381226 1630.430420,1305.246216 1631.091309,1308.984009 
	C1632.970337,1319.611938 1634.708374,1330.265747 1636.378296,1340.928833 
	C1636.761841,1343.377441 1636.889648,1345.920288 1636.719727,1348.391235 
	C1636.233765,1355.461060 1631.826294,1359.610718 1624.796753,1359.856934 
	C1623.173706,1359.913818 1621.547119,1359.865112 1619.346680,1359.865112 
	C1620.318848,1365.169556 1620.985352,1369.923218 1622.109375,1374.565918 
	C1622.929565,1377.953857 1622.359009,1380.156006 1619.156006,1382.030518 
	C1617.503418,1382.997437 1615.736938,1385.172363 1615.523804,1386.978638 
	C1613.490723,1404.209351 1606.415161,1419.936279 1600.915283,1436.082520 
	C1587.365601,1475.861694 1573.510376,1515.541992 1559.173950,1555.042969 
	C1556.647583,1562.003906 1552.224854,1569.059570 1546.763672,1573.921265 
	C1542.502808,1577.714600 1535.281738,1578.201538 1529.357910,1580.101685 
	C1525.186523,1581.439819 1521.033325,1582.885376 1516.781738,1583.906860 
	C1513.333862,1584.735229 1509.017944,1586.530029 1506.358276,1585.251587 
	C1495.953125,1580.249512 1484.118530,1575.904297 1479.208984,1564.528320 
	C1474.370361,1553.316895 1469.195190,1541.554810 1474.014648,1528.577393 
	C1474.638794,1526.896729 1474.249268,1524.040039 1473.155396,1522.655273 
	C1467.615601,1515.641846 1468.190796,1507.777344 1469.245605,1499.760010 
	C1469.505127,1497.786499 1470.166870,1495.842163 1470.230835,1493.870850 
	C1470.455688,1486.935913 1473.957642,1481.869507 1478.401367,1476.800293 
	C1482.595093,1472.016113 1485.685059,1466.249512 1489.137695,1460.836670 
	C1491.099976,1457.760620 1492.650269,1454.415771 1494.687744,1451.395386 
	C1496.907837,1448.104370 1497.751831,1444.818604 1495.969238,1440.661377 
M1567.983765,1339.063721 
	C1565.369507,1341.196533 1562.493042,1343.083740 1560.206787,1345.523926 
	C1557.309326,1348.616455 1554.961182,1351.880737 1549.780884,1350.317505 
	C1548.316406,1349.875610 1546.018188,1351.098511 1544.504150,1352.141235 
	C1541.076660,1354.501587 1538.244263,1358.010010 1534.547241,1359.634399 
	C1527.311035,1362.813965 1519.743896,1365.364746 1512.122803,1367.490601 
	C1508.425171,1368.521973 1507.205200,1370.526855 1506.090210,1373.778076 
	C1504.958740,1377.078125 1503.445435,1380.710693 1500.981445,1382.988647 
	C1496.561890,1387.074585 1495.596924,1391.058472 1497.543213,1396.733154 
	C1512.202759,1439.474609 1526.605957,1482.303955 1541.195190,1525.069580 
	C1544.270264,1534.083252 1547.782349,1542.947754 1551.584595,1553.207520 
	C1552.831909,1550.433228 1553.614014,1549.016602 1554.125977,1547.508179 
	C1571.532837,1496.226074 1588.729370,1444.871338 1606.442261,1393.695312 
	C1610.364136,1382.364746 1613.905396,1371.434692 1613.335938,1359.101074 
	C1613.068970,1353.317383 1616.680176,1347.354492 1618.533813,1341.472900 
	C1619.013916,1341.513672 1619.493896,1341.554443 1619.973999,1341.595215 
	C1622.161499,1345.088135 1624.349121,1348.581177 1626.536743,1352.074097 
	C1627.098022,1351.897339 1627.659302,1351.720459 1628.220581,1351.543701 
	C1627.707397,1346.860352 1627.316284,1342.159668 1626.656250,1337.497070 
	C1625.142700,1326.807129 1622.406006,1316.153076 1622.235840,1305.451538 
	C1622.087158,1296.103149 1618.145142,1289.264038 1612.945679,1282.500244 
	C1610.405762,1279.196167 1607.663696,1279.135498 1605.261841,1282.526245 
	C1604.090576,1284.179565 1603.879517,1286.500977 1603.173340,1288.498657 
	C1601.934692,1292.002563 1601.450317,1296.165283 1599.202271,1298.831177 
	C1595.540527,1303.173218 1593.404175,1309.520996 1586.461548,1310.480469 
	C1585.572266,1310.603394 1584.510376,1311.871216 1584.122803,1312.845093 
	C1581.379272,1319.739258 1578.497070,1326.602295 1576.266113,1333.666992 
	C1574.985718,1337.721802 1572.987183,1339.595947 1567.983765,1339.063721 
z"/>
<path fill="#010302" opacity="1.000000" stroke="none" 
	d="
M668.434998,453.421509 
	C643.399597,522.732910 618.517761,591.684448 593.667175,660.647217 
	C569.836243,726.780212 545.931824,792.887146 522.357117,859.111450 
	C519.363159,867.521851 514.737732,872.562683 506.546906,876.690918 
	C497.560577,881.220032 489.959595,881.196289 480.989838,878.049683 
	C458.333130,870.101807 435.419464,870.799377 412.205017,876.309631 
	C401.545319,878.839844 391.488861,882.278992 382.089661,887.732910 
	C376.832703,890.783203 371.287537,891.120544 365.669464,889.647766 
	C356.425873,887.224426 348.027405,883.150635 340.395477,877.162720 
	C321.682281,862.480469 302.662598,848.189392 283.806641,833.688354 
	C278.795807,829.834778 273.934875,825.786499 268.998016,821.836548 
	C260.457550,815.003174 255.035187,806.446838 251.365448,795.922119 
	C246.534241,782.066223 238.885803,769.474243 227.473557,759.642334 
	C225.588135,758.018127 223.578629,756.342041 222.267044,754.282104 
	C217.157928,746.257996 212.126251,738.229858 203.281555,734.028625 
	C205.828293,727.365051 204.269272,723.806213 198.196365,723.090942 
	C190.905334,722.232178 184.438278,720.372498 180.610779,713.549927 
	C176.655914,706.500244 175.147171,698.751526 176.649918,690.915649 
	C178.317566,682.219910 177.917938,674.013733 173.759949,666.201843 
	C171.990906,662.878296 169.633270,659.868103 167.149521,656.121826 
	C167.978363,655.077209 169.016281,653.417664 170.384720,652.101990 
	C178.589172,644.213806 181.984314,634.175171 184.029465,623.309875 
	C185.248169,616.835327 187.315231,610.506287 189.220383,604.177917 
	C194.346725,587.149658 196.540054,570.061890 190.511551,552.786682 
	C188.102478,545.883240 188.341003,539.000977 190.556580,532.206909 
	C191.719818,528.639893 191.341293,525.721375 188.771378,523.044739 
	C188.428650,522.687683 188.212280,522.206116 187.859039,521.862854 
	C177.569916,511.863739 178.501282,499.011292 179.170334,486.385468 
	C179.274902,484.412048 181.755325,482.519897 183.241074,480.673828 
	C186.095337,477.127319 189.782043,474.019623 191.765945,470.051270 
	C196.049347,461.483276 199.050339,452.269745 203.402512,443.742157 
	C206.234695,438.192841 209.960403,432.832306 214.321472,428.408112 
	C218.422745,424.247345 220.489197,419.682404 221.916199,414.256500 
	C223.597733,407.862732 225.397736,401.343903 228.359085,395.493073 
	C230.672577,390.922180 234.121658,386.186188 238.322479,383.458160 
	C248.330597,376.958862 254.907578,368.249451 258.818237,357.269104 
	C260.571320,352.346710 263.164459,349.077209 268.940643,348.483582 
	C271.871063,348.182434 274.758392,346.216064 277.398438,344.573700 
	C284.725800,340.015289 291.872559,335.349915 300.059326,332.159821 
	C314.052185,326.707245 321.977448,314.848083 328.756866,302.209259 
	C330.241760,299.441010 331.140350,296.364380 332.426941,293.482422 
	C334.805725,288.153961 335.376587,283.047577 333.638214,277.108337 
	C332.377930,272.802399 332.580109,267.336182 334.103271,263.096130 
	C337.563019,253.464966 342.244568,244.273148 346.416534,234.897003 
	C347.223511,233.083450 348.179260,231.301605 348.707825,229.405212 
	C350.212372,224.007187 353.778229,220.434296 358.700104,218.293518 
	C367.314423,214.546677 375.419586,210.257339 381.436249,202.654999 
	C382.851776,200.866425 385.445587,199.506363 387.726562,199.016525 
	C391.878357,198.124908 394.424011,195.978012 396.179779,192.200211 
	C397.427643,189.515289 399.580658,187.261490 400.935577,184.613602 
	C403.476105,179.648788 405.682587,174.514359 408.116577,169.493408 
	C411.353516,162.816025 414.110107,155.810059 418.142761,149.644958 
	C421.258911,144.881027 425.940826,145.714767 429.019562,150.520584 
	C437.133698,163.186462 448.097656,167.790787 462.895325,164.178070 
	C468.004517,162.930710 472.532776,163.559891 477.504395,164.908539 
	C484.506836,166.808075 491.788483,168.164948 499.012390,168.528122 
	C502.012085,168.678925 505.316406,165.892792 508.218353,164.030991 
	C511.428802,161.971237 514.359497,159.469162 517.372559,157.109360 
	C523.693481,152.158813 530.374573,148.196045 538.239685,145.774857 
	C545.146790,143.648590 551.362183,139.373810 558.137878,136.691452 
	C563.653687,134.507843 569.489380,133.032730 575.284180,131.673920 
	C587.224060,128.874130 599.123962,125.488953 611.243713,123.996178 
	C621.724243,122.705315 632.487671,123.578239 643.122986,123.721199 
	C651.053650,123.827797 659.102234,125.526382 666.561707,121.222549 
	C667.245667,120.827934 668.210693,120.544670 668.954895,120.685867 
	C682.991943,123.349136 696.867310,118.481064 710.947754,119.824707 
	C715.196045,120.230095 719.979370,118.164314 724.076050,116.273720 
	C729.931641,113.571411 740.526062,111.058006 745.544861,111.750198 
	C746.450806,115.441322 746.273071,119.727455 748.304077,121.543221 
	C750.225220,123.260796 754.465210,122.384644 758.709351,122.733421 
	C757.595215,126.593773 756.568542,131.176041 754.945068,135.536118 
	C752.507324,142.083252 753.032104,145.545822 757.933655,150.432938 
	C758.994080,151.490265 760.058472,152.554474 761.013733,153.704666 
	C767.857666,161.946030 767.104980,166.923828 759.264954,174.129700 
	C754.594299,178.422638 750.018738,183.298706 747.008057,188.793457 
	C743.455139,195.277908 744.885010,198.749557 750.363525,203.747986 
	C752.319580,205.532654 754.496338,207.075409 756.823364,208.928482 
	C727.425964,290.281128 698.014038,371.673859 668.434998,453.421509 
z"/>
<path fill="#010302" opacity="1.000000" stroke="none" 
	d="
M1530.844482,948.845581 
	C1516.927246,959.735535 1502.723511,969.780701 1489.905762,981.359985 
	C1480.767090,989.615662 1473.393066,999.851135 1465.414551,1009.356506 
	C1458.464233,1017.636719 1451.721558,1026.093140 1444.994385,1034.557007 
	C1443.177856,1036.842773 1441.844116,1039.505981 1440.116211,1041.869995 
	C1438.776489,1043.703125 1437.493286,1045.918457 1435.625488,1046.968506 
	C1424.900879,1052.997803 1417.318237,1061.109009 1413.722778,1073.373535 
	C1411.096802,1082.330933 1406.455444,1090.697632 1402.712524,1099.327515 
	C1402.218262,1099.447510 1401.723999,1099.567505 1401.229736,1099.687378 
	C1399.873291,1097.082520 1398.231689,1094.585083 1397.205322,1091.856079 
	C1388.137939,1067.747803 1379.017456,1043.657471 1370.216797,1019.451355 
	C1323.652100,891.376343 1277.167725,763.272095 1230.671631,635.172180 
	C1186.378662,513.141724 1142.106934,391.103607 1097.816040,269.072388 
	C1096.796997,266.265106 1095.662354,263.499817 1094.220337,259.783783 
	C1101.197266,261.459778 1107.509766,263.091522 1113.874878,264.481995 
	C1128.655396,267.710754 1143.418457,271.047607 1158.275635,273.884949 
	C1165.397339,275.244995 1172.033936,272.614868 1177.042847,267.700165 
	C1181.314453,263.508850 1185.999146,261.242157 1191.711182,260.225067 
	C1197.602173,259.176056 1203.394531,257.575836 1209.281494,256.498383 
	C1210.924805,256.197632 1213.102661,256.350067 1214.438110,257.215759 
	C1228.647217,266.426788 1244.549072,267.142578 1260.632202,266.359833 
	C1272.551636,265.779694 1272.565186,265.435547 1276.875366,276.520935 
	C1279.704712,283.798065 1282.692627,291.030762 1285.085083,298.452484 
	C1286.122437,301.670715 1286.604126,305.456818 1285.994873,308.735443 
	C1284.754272,315.413483 1282.824463,321.992859 1280.761475,328.480255 
	C1278.802856,334.638702 1276.311890,340.627838 1273.641235,347.803040 
	C1270.933960,344.547058 1268.681519,342.175964 1266.816284,339.531799 
	C1261.064941,331.378204 1255.369751,323.181061 1249.859497,314.863831 
	C1248.331543,312.557678 1247.491699,309.788239 1246.390747,307.208069 
	C1243.795776,301.126617 1240.112427,296.048218 1233.647217,292.831818 
	C1230.981812,297.577209 1229.158936,301.937561 1230.675659,307.252045 
	C1233.757812,318.051208 1237.830566,328.108032 1245.454834,336.833038 
	C1250.034058,342.073242 1252.920410,348.873474 1256.164185,355.179993 
	C1260.489868,363.590302 1264.445190,372.191864 1268.521240,380.729645 
	C1276.880493,398.239288 1285.394531,415.678375 1293.475220,433.315857 
	C1297.040894,441.098541 1301.510010,448.559265 1302.374390,457.501617 
	C1302.644287,460.293610 1305.203979,463.072571 1307.207275,465.441772 
	C1310.536621,469.379456 1314.128296,473.121704 1317.847046,476.699310 
	C1331.574341,489.905273 1339.572266,505.490173 1341.189697,524.886658 
	C1342.128784,536.150452 1345.689819,547.268616 1348.771362,558.255920 
	C1350.924072,565.931763 1356.462036,571.450684 1363.413208,575.242004 
	C1369.572632,578.601562 1373.790283,583.422180 1376.136108,589.983032 
	C1380.385742,601.868835 1384.381470,613.856445 1389.034546,625.582764 
	C1391.768188,632.471741 1394.888672,639.417358 1399.132446,645.420227 
	C1401.782837,649.169067 1406.840210,651.222778 1410.842773,654.001038 
	C1411.375122,654.370728 1412.110107,654.442383 1412.659424,654.795166 
	C1427.667847,664.434814 1443.962646,672.195984 1455.018433,687.253540 
	C1461.894531,696.618530 1470.243530,704.890991 1477.735474,713.818237 
	C1483.733154,720.965149 1483.563110,721.661011 1477.151733,728.237366 
	C1475.556152,729.874023 1474.072021,731.619324 1472.223999,733.659790 
	C1473.932495,734.924866 1475.211914,735.930237 1476.548584,736.852356 
	C1483.901001,741.924744 1491.121704,747.210571 1498.697266,751.925720 
	C1501.925049,753.934631 1505.813354,755.474487 1509.560913,755.937439 
	C1518.394897,757.028992 1526.872437,755.537964 1535.402466,752.357483 
	C1541.575073,750.055908 1548.657349,750.184692 1555.338135,749.259460 
	C1558.747803,748.787170 1562.792358,749.404358 1565.472778,747.766418 
	C1577.288086,740.546753 1590.084351,738.314941 1603.637695,738.166260 
	C1619.453613,737.992859 1634.118652,733.686279 1647.457764,724.923279 
	C1649.232300,723.757446 1652.032471,724.152771 1654.357666,723.825195 
	C1654.586670,725.925293 1654.865601,728.021667 1655.019531,730.127258 
	C1655.079224,730.943115 1654.610596,731.840820 1654.799194,732.597290 
	C1656.934448,741.159912 1654.038940,748.804810 1651.345581,756.783081 
	C1649.253540,762.980408 1648.869141,769.814636 1648.193115,776.413574 
	C1647.438232,783.781738 1643.893555,789.759888 1640.492065,796.134399 
	C1632.452759,811.200500 1626.184570,827.247192 1617.664795,842.011414 
	C1609.081299,856.886169 1602.391235,873.097290 1589.984741,885.591492 
	C1588.938110,886.645447 1587.737427,887.793579 1587.263062,889.130310 
	C1582.458862,902.669678 1570.137573,910.478760 1562.438965,921.847839 
	C1554.543823,933.507080 1542.742798,941.066772 1530.844482,948.845581 
z"/>
<path fill="#010202" opacity="1.000000" stroke="none" 
	d="
M898.065979,1661.195435 
	C892.816528,1655.195312 887.455383,1649.744873 882.589600,1643.883301 
	C874.023193,1633.563721 866.243958,1622.775024 863.915344,1609.026123 
	C862.781860,1602.334106 860.919678,1595.764893 859.801331,1589.070923 
	C858.325684,1580.239014 857.403320,1571.315674 855.977844,1562.474365 
	C853.969910,1550.020630 851.709167,1537.607788 849.573914,1525.174438 
	C847.120605,1510.889038 841.179199,1498.077759 834.060059,1485.527222 
	C827.701355,1474.317261 822.792358,1462.293701 816.993164,1450.755005 
	C811.731323,1440.285767 806.247009,1429.923462 800.630981,1419.639282 
	C797.950745,1414.730957 794.669983,1410.153687 791.818420,1405.333496 
	C791.188232,1404.268066 790.999451,1402.812012 790.987061,1401.532104 
	C790.913208,1393.881592 790.950562,1386.230103 790.950562,1377.753052 
	C793.075256,1377.753052 794.985229,1377.755371 796.895264,1377.752686 
	C867.874634,1377.655273 938.854004,1377.511475 1009.833374,1377.473022 
	C1077.814575,1377.436157 1145.795654,1377.539185 1213.776733,1377.451660 
	C1217.496216,1377.446899 1219.190552,1378.367798 1220.464844,1382.108276 
	C1239.918091,1439.214111 1259.596436,1496.243286 1279.154541,1553.313599 
	C1282.351562,1562.642700 1280.325684,1566.946167 1270.541260,1568.790894 
	C1257.326050,1571.282471 1247.296631,1578.997803 1237.391235,1587.086304 
	C1236.020874,1588.205566 1235.292114,1590.897827 1235.346069,1592.831543 
	C1235.531494,1599.476929 1236.057495,1606.123169 1236.727539,1612.741211 
	C1237.185791,1617.265869 1237.730957,1621.306274 1233.689331,1625.055298 
	C1231.983521,1626.637573 1231.797974,1630.641602 1232.090088,1633.421997 
	C1232.603271,1638.306885 1230.651733,1641.810669 1228.161865,1645.764160 
	C1222.288696,1655.090210 1216.266602,1664.128296 1207.079834,1670.598022 
	C1206.188965,1671.225220 1205.343994,1672.357422 1205.104126,1673.399536 
	C1203.340698,1681.057373 1197.605225,1685.669067 1192.416748,1690.847656 
	C1189.687012,1693.571899 1187.887573,1697.223755 1185.638550,1700.435913 
	C1183.833740,1703.013672 1182.293823,1705.867310 1180.105225,1708.071289 
	C1164.983765,1723.299805 1150.183838,1738.893555 1134.363403,1753.367432 
	C1121.461914,1765.171021 1106.495117,1773.328247 1088.332886,1775.440186 
	C1082.904419,1776.071533 1077.843750,1779.028442 1072.050903,1776.755005 
	C1071.088867,1776.377319 1069.464233,1777.253662 1068.312378,1777.864502 
	C1060.692627,1781.904785 1052.621826,1781.615479 1044.440186,1780.548096 
	C1032.146362,1778.944092 1020.687256,1781.350708 1009.794617,1787.289795 
	C1007.019958,1788.802612 1003.463928,1790.028564 1000.435791,1789.721191 
	C990.233948,1788.686035 980.989502,1790.638062 972.308716,1796.089722 
	C966.203064,1799.924194 960.289917,1800.869751 954.323425,1795.006836 
	C950.205078,1790.959961 945.206360,1787.776855 940.455322,1784.413696 
	C933.665405,1779.607056 928.617126,1773.841431 927.953003,1765.048462 
	C927.824036,1763.340576 926.104492,1761.766357 925.923279,1760.045776 
	C925.662842,1757.573120 925.893372,1754.975098 926.366272,1752.517700 
	C926.942688,1749.522827 928.463013,1746.663940 928.750366,1743.667114 
	C930.191650,1728.635498 922.580383,1716.559814 915.305176,1704.491821 
	C912.717407,1700.199341 910.619446,1696.126221 909.784973,1690.923706 
	C908.955200,1685.750122 905.513855,1681.028809 903.468567,1676.007080 
	C901.535217,1671.260498 899.928040,1666.381104 898.065979,1661.195435 
z"/>
<path fill="#010202" opacity="1.000000" stroke="none" 
	d="
M862.007690,617.037720 
	C879.539978,562.726685 896.981262,508.804962 914.422607,454.883240 
	C985.675964,682.496399 1064.858276,907.411194 1141.644897,1133.772217 
	C1139.411743,1133.871704 1137.681396,1134.015869 1135.951172,1134.016113 
	C1025.481689,1134.036987 915.012085,1134.016357 804.542786,1134.162964 
	C800.065491,1134.168945 797.941162,1132.645752 796.589050,1128.611572 
	C794.748657,1123.120850 792.857910,1117.575073 790.231018,1112.440552 
	C787.686462,1107.466797 784.403687,1102.820190 781.062744,1098.313354 
	C765.147461,1076.843872 746.516663,1057.397705 733.038452,1034.137817 
	C731.472351,1031.435181 730.858643,1027.269897 731.648071,1024.267700 
	C735.404358,1009.981506 739.530579,995.777466 744.022949,981.703125 
	C753.067078,953.367981 762.471313,925.148010 771.659668,896.858704 
	C784.852539,856.240845 798.013977,815.612671 811.136414,774.971985 
	C828.090210,722.465698 844.992371,669.942810 862.007690,617.037720 
z"/>
<path fill="#000202" opacity="1.000000" stroke="none" 
	d="
M1246.051758,327.882080 
	C1244.073364,323.792694 1242.256836,320.032379 1240.440308,316.272034 
	C1241.037720,315.911804 1241.635254,315.551575 1242.232666,315.191345 
	C1250.667969,326.738525 1259.103149,338.285706 1267.804077,350.196686 
	C1262.553345,348.950104 1254.174927,340.242310 1246.051758,327.882080 
z"/>
<path fill="#000202" opacity="1.000000" stroke="none" 
	d="
M1240.654541,314.493042 
	C1240.666138,314.735931 1240.570312,314.820221 1240.474487,314.904541 
	C1240.402832,314.798920 1240.265869,314.684937 1240.277954,314.589905 
	C1240.290039,314.494843 1240.451294,314.418823 1240.654541,314.493042 
z"/>
<path fill="#020302" opacity="1.000000" stroke="none" 
	d="
M1568.389160,1339.034180 
	C1572.987183,1339.595947 1574.985718,1337.721802 1576.266113,1333.666992 
	C1578.497070,1326.602295 1581.379272,1319.739258 1584.122803,1312.845093 
	C1584.510376,1311.871216 1585.572266,1310.603394 1586.461548,1310.480469 
	C1593.404175,1309.520996 1595.540527,1303.173218 1599.202271,1298.831177 
	C1601.450317,1296.165283 1601.934692,1292.002563 1603.173340,1288.498657 
	C1603.879517,1286.500977 1604.090576,1284.179565 1605.261841,1282.526245 
	C1607.663696,1279.135498 1610.405762,1279.196167 1612.945679,1282.500244 
	C1618.145142,1289.264038 1622.087158,1296.103149 1622.235840,1305.451538 
	C1622.406006,1316.153076 1625.142700,1326.807129 1626.656250,1337.497070 
	C1627.316284,1342.159668 1627.707397,1346.860352 1628.220581,1351.543701 
	C1627.659302,1351.720459 1627.098022,1351.897339 1626.536743,1352.074097 
	C1624.349121,1348.581177 1622.161499,1345.088135 1619.973999,1341.595215 
	C1619.493896,1341.554443 1619.013916,1341.513672 1618.533813,1341.472900 
	C1616.680176,1347.354492 1613.068970,1353.317383 1613.335938,1359.101074 
	C1613.905396,1371.434692 1610.364136,1382.364746 1606.442261,1393.695312 
	C1588.729370,1444.871338 1571.532837,1496.226074 1554.125977,1547.508179 
	C1553.614014,1549.016602 1552.831909,1550.433228 1551.584595,1553.207520 
	C1547.782349,1542.947754 1544.270264,1534.083252 1541.195190,1525.069580 
	C1526.605957,1482.303955 1512.202759,1439.474609 1497.543213,1396.733154 
	C1495.596924,1391.058472 1496.561890,1387.074585 1500.981445,1382.988647 
	C1503.445435,1380.710693 1504.958740,1377.078125 1506.090210,1373.778076 
	C1507.205200,1370.526855 1508.425171,1368.521973 1512.122803,1367.490601 
	C1519.743896,1365.364746 1527.311035,1362.813965 1534.547241,1359.634399 
	C1538.244263,1358.010010 1541.076660,1354.501587 1544.504150,1352.141235 
	C1546.018188,1351.098511 1548.316406,1349.875610 1549.780884,1350.317505 
	C1554.961182,1351.880737 1557.309326,1348.616455 1560.206787,1345.523926 
	C1562.493042,1343.083740 1565.369507,1341.196533 1568.389160,1339.034180 
z"/>
</svg>